<mxfile host="app.diagrams.net" modified="2023-04-07T21:11:57.175Z" agent="Mozilla/5.0 (Windows NT 10.0; Win64; x64) AppleWebKit/537.36 (KHTML, like Gecko) Chrome/111.0.0.0 Safari/537.36" etag="hQ8Q9e2fhejNQ61whVWr" version="21.1.5" type="device">
  <diagram name="Page-1" id="NWf8UHHpkJ2kbtZXyaGR">
    <mxGraphModel dx="1514" dy="1869" grid="1" gridSize="10" guides="1" tooltips="1" connect="1" arrows="1" fold="1" page="1" pageScale="1" pageWidth="850" pageHeight="1100" math="0" shadow="0">
      <root>
        <mxCell id="0" />
        <mxCell id="1" parent="0" />
        <mxCell id="U5RXYlucq43CfJlFisMM-1" value="Citizen" style="shape=umlActor;verticalLabelPosition=bottom;verticalAlign=top;html=1;outlineConnect=0;" vertex="1" parent="1">
          <mxGeometry x="-550" y="-640" width="40" height="70" as="geometry" />
        </mxCell>
        <mxCell id="U5RXYlucq43CfJlFisMM-2" value=":Democracia2.0" style="rounded=0;whiteSpace=wrap;html=1;" vertex="1" parent="1">
          <mxGeometry x="-100" y="-640" width="130" height="70" as="geometry" />
        </mxCell>
        <mxCell id="U5RXYlucq43CfJlFisMM-3" value="" style="endArrow=none;dashed=1;html=1;rounded=0;" edge="1" parent="1">
          <mxGeometry width="50" height="50" relative="1" as="geometry">
            <mxPoint x="-530" y="-120" as="sourcePoint" />
            <mxPoint x="-530" y="-540" as="targetPoint" />
          </mxGeometry>
        </mxCell>
        <mxCell id="U5RXYlucq43CfJlFisMM-4" value="" style="endArrow=none;dashed=1;html=1;rounded=0;entryX=0.542;entryY=1.02;entryDx=0;entryDy=0;entryPerimeter=0;" edge="1" parent="1" target="U5RXYlucq43CfJlFisMM-2">
          <mxGeometry width="50" height="50" relative="1" as="geometry">
            <mxPoint x="-30" y="-120" as="sourcePoint" />
            <mxPoint x="-30" y="-560" as="targetPoint" />
          </mxGeometry>
        </mxCell>
        <mxCell id="U5RXYlucq43CfJlFisMM-5" value="" style="endArrow=block;html=1;rounded=0;endFill=1;" edge="1" parent="1">
          <mxGeometry x="0.0014" y="10" width="50" height="50" relative="1" as="geometry">
            <mxPoint x="-530" y="-480" as="sourcePoint" />
            <mxPoint x="-30" y="-480" as="targetPoint" />
            <Array as="points">
              <mxPoint x="-280" y="-480" />
            </Array>
            <mxPoint as="offset" />
          </mxGeometry>
        </mxCell>
        <mxCell id="U5RXYlucq43CfJlFisMM-6" value="getBillThemes()" style="text;html=1;align=center;verticalAlign=middle;resizable=0;points=[];autosize=1;strokeColor=none;fillColor=none;" vertex="1" parent="1">
          <mxGeometry x="-335" y="-505" width="110" height="30" as="geometry" />
        </mxCell>
        <mxCell id="U5RXYlucq43CfJlFisMM-7" value="" style="endArrow=none;dashed=1;html=1;rounded=0;startArrow=block;startFill=1;" edge="1" parent="1">
          <mxGeometry width="50" height="50" relative="1" as="geometry">
            <mxPoint x="-530" y="-440" as="sourcePoint" />
            <mxPoint x="-30" y="-440" as="targetPoint" />
          </mxGeometry>
        </mxCell>
        <mxCell id="U5RXYlucq43CfJlFisMM-8" value="themes list" style="text;html=1;align=center;verticalAlign=middle;resizable=0;points=[];autosize=1;strokeColor=none;fillColor=none;" vertex="1" parent="1">
          <mxGeometry x="-320" y="-464" width="80" height="30" as="geometry" />
        </mxCell>
        <mxCell id="U5RXYlucq43CfJlFisMM-10" value="" style="endArrow=block;html=1;rounded=0;endFill=1;" edge="1" parent="1">
          <mxGeometry x="0.0014" y="10" width="50" height="50" relative="1" as="geometry">
            <mxPoint x="-530" y="-390" as="sourcePoint" />
            <mxPoint x="-30" y="-390" as="targetPoint" />
            <Array as="points">
              <mxPoint x="-280" y="-390" />
            </Array>
            <mxPoint as="offset" />
          </mxGeometry>
        </mxCell>
        <mxCell id="U5RXYlucq43CfJlFisMM-11" value="getDelegados()" style="text;html=1;align=center;verticalAlign=middle;resizable=0;points=[];autosize=1;strokeColor=none;fillColor=none;" vertex="1" parent="1">
          <mxGeometry x="-338" y="-416" width="110" height="30" as="geometry" />
        </mxCell>
        <mxCell id="U5RXYlucq43CfJlFisMM-15" value="" style="endArrow=none;dashed=1;html=1;rounded=0;startArrow=block;startFill=1;" edge="1" parent="1">
          <mxGeometry width="50" height="50" relative="1" as="geometry">
            <mxPoint x="-530" y="-340" as="sourcePoint" />
            <mxPoint x="-30" y="-340" as="targetPoint" />
          </mxGeometry>
        </mxCell>
        <mxCell id="U5RXYlucq43CfJlFisMM-16" value="delegados list" style="text;html=1;align=center;verticalAlign=middle;resizable=0;points=[];autosize=1;strokeColor=none;fillColor=none;" vertex="1" parent="1">
          <mxGeometry x="-334" y="-366" width="100" height="30" as="geometry" />
        </mxCell>
        <mxCell id="U5RXYlucq43CfJlFisMM-17" value="loop" style="shape=umlFrame;whiteSpace=wrap;html=1;pointerEvents=0;" vertex="1" parent="1">
          <mxGeometry x="-600" y="-310" width="600" height="110" as="geometry" />
        </mxCell>
        <mxCell id="U5RXYlucq43CfJlFisMM-18" value="[keepAlive == true]" style="text;html=1;align=center;verticalAlign=middle;resizable=0;points=[];autosize=1;strokeColor=none;fillColor=none;" vertex="1" parent="1">
          <mxGeometry x="-530" y="-300" width="120" height="30" as="geometry" />
        </mxCell>
        <mxCell id="U5RXYlucq43CfJlFisMM-19" value="" style="endArrow=block;html=1;rounded=0;endFill=1;" edge="1" parent="1">
          <mxGeometry x="0.0014" y="10" width="50" height="50" relative="1" as="geometry">
            <mxPoint x="-530" y="-239" as="sourcePoint" />
            <mxPoint x="-30" y="-239" as="targetPoint" />
            <Array as="points">
              <mxPoint x="-280" y="-239" />
            </Array>
            <mxPoint as="offset" />
          </mxGeometry>
        </mxCell>
        <mxCell id="U5RXYlucq43CfJlFisMM-20" value="chooseDelegado(delegado, theme, voter.id)" style="text;html=1;align=center;verticalAlign=middle;resizable=0;points=[];autosize=1;strokeColor=none;fillColor=none;" vertex="1" parent="1">
          <mxGeometry x="-423" y="-265" width="260" height="30" as="geometry" />
        </mxCell>
      </root>
    </mxGraphModel>
  </diagram>
</mxfile>
